<svg width="40" height="40" viewBox="0 0 40 40" fill="none" xmlns="http://www.w3.org/2000/svg">
<g clip-path="url(#clip0_12532_3293)">
<path d="M20.0317 0.34668C9.26184 0.34668 0.531738 9.07679 0.531738 19.8467C0.531738 30.6166 9.26184 39.3467 20.0317 39.3467C30.8016 39.3467 39.5317 30.6166 39.5317 19.8467C39.5317 9.07679 30.8016 0.34668 20.0317 0.34668ZM24.4359 31.0649L18.4523 22.3396L10.9735 31.0649H9.06231L17.6217 21.0932L9.06231 8.62724H15.6276L21.2782 16.8549L28.3423 8.62724H30.2535L22.11 18.1014L31.0024 31.0649H24.4371H24.4359Z" fill="white"/>
<path d="M19.4499 21.1761L18.6193 19.9296L11.7223 10.0408H14.7141L20.2817 18.0184L21.1123 19.2649L28.3423 29.6526H25.3505L19.4499 21.1761Z" fill="white"/>
</g>
<defs>
<clipPath id="clip0_12532_3293">
<rect width="39" height="39" fill="white" transform="translate(0.531738 0.34668)"/>
</clipPath>
</defs>
</svg>
